<svg width="128" height="128" viewBox="0 0 128 128" fill="none" xmlns="http://www.w3.org/2000/svg">
<path d="M110.894 6.70822C112.382 8.23697 113.216 9.91708 114.142 11.8091C114.4 12.3237 115.994 11.2945 115.872 10.7799C115.387 8.76674 114.051 6.99581 112.579 5.57301C112.078 5.11892 110.5 6.29954 110.894 6.70822Z" fill="#F3E9E1"/>
<path d="M119.91 6.5264C119.864 8.38815 119.469 10.1439 119.12 11.9603C118.953 12.7625 120.501 11.8241 120.668 11.4003C121.351 9.61419 121.549 7.58593 121.533 5.67878C121.503 5.11874 119.925 5.96636 119.91 6.5264Z" fill="#F3E9E1"/>
<path d="M123.612 14.246C124.766 13.6859 125.934 13.1259 127.118 12.6113C127.543 12.4296 128.104 11.9302 127.983 11.4004C127.862 10.8858 127.194 10.916 126.814 11.0825C125.646 11.6123 124.477 12.1572 123.309 12.7172C122.899 12.9291 122.322 13.3832 122.444 13.9281C122.565 14.4427 123.233 14.4276 123.612 14.246Z" fill="#F3E9E1"/>
<path d="M115.812 24.9167C116.009 24.4929 115.265 23.7058 114.142 23.1761C113.019 22.6463 111.942 22.5555 111.744 22.9945C111.547 23.4183 112.291 24.2053 113.414 24.7351C114.537 25.2649 115.615 25.3405 115.812 24.9167Z" fill="#D4BFA9"/>
<path d="M112.123 22.2679C112.503 21.5262 112.837 20.7391 112.958 19.9067C113.246 18.1206 112.715 16.0621 113.793 14.6241C114.582 13.5797 116.024 13.2165 117.314 13.3678C118.892 13.5343 120.44 14.4274 121.214 15.8048C121.988 17.1973 121.852 19.0893 120.759 20.2397C119.833 21.2084 118.422 21.5414 117.435 22.4495C116.889 22.9642 116.525 23.615 116.115 24.2659L115.978 24.4626C112.928 24.2356 112.123 22.2679 112.123 22.2679Z" fill="#EBDBCD"/>
<path d="M117.436 19.3467C117.299 18.8775 116.89 18.9229 116.525 19.0894C116.434 18.8321 116.282 18.4991 116.009 18.4083C115.706 18.3023 115.372 18.5142 115.144 18.6958C114.643 19.1045 114.264 19.71 114.051 20.3154C113.839 20.9209 113.733 21.5717 113.535 22.1772C113.46 22.4193 113.854 22.5253 113.93 22.268C114.173 21.4809 114.264 20.6333 114.659 19.9067C114.886 19.4981 115.22 19.044 115.645 18.8321C115.782 18.7715 115.888 18.7413 115.979 18.8926C116.055 18.9986 116.115 19.1197 116.146 19.2407C116.146 19.2559 116.161 19.2559 116.161 19.271C116.1 19.3013 116.07 19.3316 116.024 19.3618C115.615 19.6948 115.083 20.27 115.099 20.83C115.114 21.0874 115.281 21.2993 115.539 21.3144C115.827 21.3295 116.115 21.0874 116.282 20.8755C116.616 20.4668 116.707 19.937 116.616 19.4375C116.707 19.377 116.798 19.3467 116.889 19.3467C117.132 19.3316 117.041 19.7402 117.011 19.8765C116.89 20.3457 116.647 20.7544 116.404 21.163C116.222 21.4658 116.055 21.7988 115.827 22.0712C115.584 22.3739 115.235 22.5859 114.917 22.8129C114.704 22.9491 114.917 23.2972 115.129 23.161C115.508 22.9037 115.888 22.6464 116.176 22.2831C116.465 21.8896 116.723 21.4506 116.965 21.042C117.223 20.5727 117.603 19.8916 117.436 19.3467ZM116.237 20.0732C116.191 20.2851 116.1 20.497 115.949 20.6635C115.857 20.7544 115.478 21.1025 115.508 20.7998C115.524 20.6181 115.66 20.4214 115.751 20.27C115.888 20.0732 116.055 19.8916 116.237 19.7402C116.252 19.8462 116.252 19.9673 116.237 20.0732Z" fill="#BFA990"/>
<path d="M113.413 24.7202C112.397 24.2358 111.699 23.5698 111.714 23.1309L111.274 24.9169C111.107 25.265 111.714 25.9008 112.624 26.3246C113.535 26.7484 114.4 26.8241 114.567 26.4759C114.582 26.4608 114.582 26.4457 114.582 26.4154L115.736 25.0077C115.386 25.3105 114.43 25.2045 113.413 24.7202Z" fill="#BFA990"/>
<path d="M15.5928 41.0021V52.6951C15.5928 53.1078 15.2573 53.4423 14.8436 53.4423H0.749202C0.335466 53.4423 0 53.1078 0 52.6951V41.0021C0 40.5895 0.335182 40.2549 0.749202 40.2549H14.8436C15.2573 40.2549 15.5928 40.5895 15.5928 41.0021Z" fill="#FFD9E8"/>
<path d="M15.5928 41.0021V43.2066H0V41.0021C0 40.5895 0.335466 40.2549 0.749202 40.2549H14.8436C15.2573 40.2549 15.5928 40.5895 15.5928 41.0021Z" fill="#7C209C"/>
<path d="M4.22576 41.1914C4.01206 41.1914 3.83905 41.0189 3.83905 40.8058V39.7055C3.83905 39.4926 4.01234 39.3198 4.22576 39.3198C4.43945 39.3198 4.61246 39.4926 4.61246 39.7055V40.8058C4.61275 41.0189 4.43945 41.1914 4.22576 41.1914Z" fill="#7C209C"/>
<path d="M11.3664 41.1904C11.1527 41.1904 10.9797 41.0179 10.9797 40.8048V39.7045C10.9797 39.4916 11.153 39.3188 11.3664 39.3188C11.5801 39.3188 11.7531 39.4916 11.7531 39.7045V40.8048C11.7531 41.0179 11.5801 41.1904 11.3664 41.1904Z" fill="#7C209C"/>
<path d="M4.4523 48.6523L6.11664 47.1615C6.20144 47.0852 6.28597 46.9986 6.37076 46.9019C6.45556 46.8054 6.49796 46.6927 6.49796 46.5639C6.49796 46.4192 6.44529 46.3053 6.34058 46.2227C6.23558 46.1401 6.11265 46.099 5.97152 46.099C5.80192 46.099 5.66991 46.1512 5.57515 46.2559C5.4804 46.3606 5.42691 46.4895 5.41468 46.6422L4.50694 46.5758C4.51889 46.3544 4.56528 46.1623 4.64609 45.9994C4.7269 45.8365 4.8336 45.7006 4.96677 45.5919C5.09994 45.4832 5.25617 45.4017 5.43573 45.3475C5.61528 45.2933 5.80991 45.2661 6.01962 45.2661C6.2134 45.2661 6.39493 45.2933 6.56424 45.3475C6.73354 45.4017 6.88097 45.4823 7.00617 45.589C7.13109 45.6958 7.22897 45.8294 7.29982 45.9906C7.37039 46.1515 7.40566 46.3388 7.40566 46.552C7.40566 46.6888 7.39142 46.8124 7.36325 46.9231C7.33508 47.0338 7.29555 47.1345 7.24518 47.2248C7.19482 47.3153 7.13504 47.3991 7.06675 47.4754C6.99817 47.552 6.92334 47.6263 6.84281 47.6987L5.54156 48.8154H7.44179V49.6123H4.45203V48.6523H4.4523Z" fill="#7C209C"/>
<path d="M9.58516 48.085C9.53679 48.0969 9.48841 48.1071 9.44004 48.115C9.39166 48.1233 9.34102 48.1269 9.28866 48.1269C9.08691 48.1269 8.9034 48.091 8.73807 48.0183C8.57246 47.9459 8.43132 47.8472 8.31437 47.7226C8.19742 47.598 8.10664 47.4501 8.04205 47.279C7.97746 47.1081 7.94531 46.926 7.94531 46.7327C7.94531 46.5114 7.98655 46.3113 8.06935 46.1322C8.15187 45.9532 8.26513 45.7993 8.40826 45.6705C8.55139 45.5416 8.71985 45.442 8.91362 45.3716C9.1074 45.3013 9.31713 45.2661 9.54306 45.2661C9.76501 45.2661 9.97356 45.3013 10.1693 45.3716C10.3651 45.442 10.5344 45.5416 10.6779 45.6705C10.821 45.7993 10.9339 45.9532 11.0167 46.1322C11.0993 46.3113 11.1408 46.5117 11.1408 46.7327C11.1408 46.8857 11.1266 47.0253 11.0984 47.1522C11.0702 47.279 11.033 47.3988 10.9866 47.5114C10.9402 47.6241 10.8856 47.7316 10.8233 47.8344C10.7607 47.9371 10.6952 48.0427 10.6266 48.1514L9.68846 49.6121H8.581L9.58516 48.085ZM8.85273 46.769C8.85273 46.9623 8.9162 47.122 9.0434 47.2489C9.17059 47.3758 9.33677 47.4391 9.54278 47.4391C9.7488 47.4391 9.91498 47.3758 10.0422 47.2489C10.1694 47.122 10.2328 46.9623 10.2328 46.769C10.2328 46.5758 10.1694 46.416 10.0422 46.2892C9.91498 46.1623 9.7488 46.099 9.54278 46.099C9.33677 46.099 9.17059 46.1623 9.0434 46.2892C8.91649 46.416 8.85273 46.5761 8.85273 46.769Z" fill="#7C209C"/>
<path d="M9.58771 51.8579H6.00523C5.91816 51.8579 5.84756 51.7875 5.84756 51.7007C5.84756 51.6138 5.91816 51.5435 6.00523 51.5435H9.58771C9.67478 51.5435 9.74537 51.6138 9.74537 51.7007C9.74537 51.7875 9.67478 51.8579 9.58771 51.8579Z" fill="#7C209C"/>
<path fill-rule="evenodd" clip-rule="evenodd" d="M36.6393 93.8059C40.8011 91.8426 43.2815 96.9916 41.1885 99.8585C38.6343 103.357 37.3259 107.382 36.5973 108.595C35.9827 109.618 34.299 112.113 32.2716 110.963C30.4058 109.905 31.4227 105.752 31.4227 105.752C31.4227 105.752 31.5051 96.2279 36.6393 93.8059Z" fill="#5B8C00"/>
<path fill-rule="evenodd" clip-rule="evenodd" d="M24.1213 110.164C22.7064 108.26 22.1898 105.528 23.7691 104.827C25.2832 104.155 27.7913 105.809 28.953 108.992C30.1147 112.175 30.785 114.463 29.6486 114.861C27.7842 115.514 25.9901 112.678 24.1213 110.164Z" fill="#5B8C00"/>
<path fill-rule="evenodd" clip-rule="evenodd" d="M38.9961 110.308C37.3958 112.179 35.0865 115.941 33.6398 114.623C32.7629 113.825 33.9351 110.043 37.1437 107.985C39.873 106.235 40.5964 108.438 38.9961 110.308Z" fill="#7CB305"/>
<path fill-rule="evenodd" clip-rule="evenodd" d="M23.6827 97.3292C24.2913 96.9208 25.0569 96.8276 25.7554 97.0507C26.7303 97.3621 28.2097 98.2894 29.6739 100.951C31.5855 104.426 32.5806 108.235 32.3839 110.648C32.2553 112.226 30.3061 112.906 29.2156 111.756C28.7148 111.227 28.1849 110.413 27.6664 109.177C25.58 104.204 23.6292 101.088 23.3966 100.775C22.7759 99.9403 22.3321 98.2355 23.6827 97.3292Z" fill="#7CB305"/>
<path fill-rule="evenodd" clip-rule="evenodd" d="M25.0821 99.3127C25.1027 99.5582 24.9199 99.7739 24.6737 99.7945C24.4275 99.8151 24.2112 99.6328 24.1906 99.3873C24.1699 99.1418 24.3528 98.926 24.5989 98.9054C24.8451 98.8848 25.0614 99.0672 25.0821 99.3127Z" fill="white"/>
<path fill-rule="evenodd" clip-rule="evenodd" d="M28.8815 101.217C28.9021 101.463 28.7193 101.679 28.4731 101.699C28.2269 101.72 28.0106 101.537 27.99 101.292C27.9693 101.046 28.1522 100.831 28.3983 100.81C28.6445 100.79 28.8608 100.972 28.8815 101.217Z" fill="white"/>
<path fill-rule="evenodd" clip-rule="evenodd" d="M28.2447 106.289C28.2683 106.57 28.059 106.817 27.777 106.841C27.4951 106.864 27.2474 106.655 27.2238 106.374C27.2001 106.093 27.4095 105.846 27.6914 105.822C27.9733 105.799 28.221 106.008 28.2447 106.289Z" fill="white"/>
<path fill-rule="evenodd" clip-rule="evenodd" d="M39.9146 98.7098C39.9146 99.1089 39.5902 99.4323 39.1901 99.4323C38.79 99.4323 38.4657 99.1089 38.4657 98.7098C38.4657 98.3108 38.79 97.9873 39.1901 97.9873C39.5902 97.9873 39.9146 98.3108 39.9146 98.7098Z" fill="white"/>
<path fill-rule="evenodd" clip-rule="evenodd" d="M34.0826 100.916C34.0826 101.315 33.7583 101.639 33.3582 101.639C32.9581 101.639 32.6337 101.315 32.6337 100.916C32.6337 100.517 32.9581 100.194 33.3582 100.194C33.7583 100.194 34.0826 100.517 34.0826 100.916Z" fill="white"/>
<path fill-rule="evenodd" clip-rule="evenodd" d="M35.9714 105.821C35.9714 105.987 35.8358 106.123 35.6686 106.123C35.5014 106.123 35.3658 105.987 35.3658 105.821C35.3658 105.654 35.5014 105.519 35.6686 105.519C35.8358 105.519 35.9714 105.654 35.9714 105.821Z" fill="white"/>
<path fill-rule="evenodd" clip-rule="evenodd" d="M38.1529 109.683C38.1529 109.929 37.9526 110.129 37.7056 110.129C37.4585 110.129 37.2582 109.929 37.2582 109.683C37.2582 109.436 37.4585 109.236 37.7056 109.236C37.9526 109.236 38.1529 109.436 38.1529 109.683Z" fill="white"/>
<path d="M27.7049 110.672C27.7465 110.632 27.8126 110.634 27.8523 110.675L27.8714 110.696L27.8858 110.712C27.9121 110.741 27.9425 110.776 27.9766 110.817C28.0736 110.932 28.1814 111.07 28.2973 111.23C28.6277 111.686 28.9578 112.23 29.2656 112.862C30.1442 114.664 30.6711 116.805 30.6711 119.276C30.6711 119.333 30.6244 119.38 30.5668 119.38C30.5092 119.38 30.4625 119.333 30.4625 119.276C30.4625 116.837 29.9432 114.727 29.078 112.953C28.7756 112.332 28.4517 111.798 28.1282 111.351C28.0219 111.205 27.9229 111.078 27.8335 110.97L27.8168 110.95C27.7914 110.92 27.7683 110.893 27.7476 110.87L27.7215 110.841C27.7118 110.83 27.705 110.823 27.7014 110.819C27.6616 110.777 27.6632 110.711 27.7049 110.672Z" fill="#253368"/>
<path d="M35.585 111.4C35.6194 111.354 35.6848 111.344 35.7309 111.379C35.7771 111.413 35.7866 111.478 35.7521 111.524C35.3722 112.032 35.0216 112.577 34.6992 113.156C34.0177 114.378 33.4908 115.689 33.0997 117C32.9628 117.459 32.8527 117.885 32.767 118.267L32.7496 118.345C32.7292 118.439 32.7115 118.524 32.6964 118.6L32.6867 118.65L32.6694 118.744C32.6598 118.801 32.606 118.839 32.5492 118.83C32.4924 118.82 32.4541 118.767 32.4637 118.71L32.4696 118.676C32.4745 118.649 32.4805 118.618 32.4876 118.581L32.5048 118.494C32.5216 118.412 32.5411 118.321 32.5634 118.221L32.5823 118.138C32.6661 117.773 32.7713 117.371 32.8997 116.941C33.2949 115.616 33.8273 114.292 34.5169 113.055C34.8437 112.468 35.1993 111.915 35.585 111.4Z" fill="#253368"/>
<path d="M37.4077 98.4215C37.4476 98.4597 37.4505 98.5219 37.4154 98.5635L37.4108 98.5686C37.4088 98.5707 37.4044 98.5754 37.3977 98.5826L37.372 98.6105L37.3571 98.627C37.3122 98.6769 37.26 98.737 37.2011 98.8073C37.0322 99.0088 36.8438 99.2513 36.6407 99.5349C36.0594 100.346 35.4778 101.324 34.9347 102.468C34.0305 104.374 33.3263 106.547 32.8995 108.99C32.3812 111.957 32.2954 115.197 32.7196 118.715C32.7265 118.772 32.6857 118.824 32.6285 118.83C32.5713 118.837 32.5194 118.797 32.5125 118.74C32.0858 115.202 32.1722 111.941 32.6939 108.954C33.124 106.492 33.8341 104.301 34.7461 102.379C35.2947 101.224 35.8826 100.235 36.4709 99.414L36.5165 99.3506C36.6979 99.1001 36.8675 98.8822 37.0218 98.6968L37.0411 98.6738C37.0965 98.6077 37.1463 98.5502 37.19 98.5012L37.2018 98.4881C37.2155 98.4729 37.2277 98.4595 37.2384 98.4479L37.2602 98.4246C37.3 98.3832 37.3661 98.3817 37.4077 98.4215Z" fill="#253368"/>
<path d="M28.3793 104.59C28.4286 104.561 28.4927 104.576 28.5226 104.625L28.5331 104.643C28.5414 104.657 28.5512 104.674 28.5624 104.693L28.5788 104.722C28.6068 104.771 28.6382 104.827 28.6728 104.891L28.7015 104.944C28.8076 105.141 28.9239 105.369 29.048 105.627L29.065 105.662C29.4699 106.508 29.8746 107.497 30.2522 108.622C31.3095 111.769 31.9527 115.342 31.9768 119.275C31.9771 119.333 31.9307 119.379 31.8731 119.38C31.8155 119.38 31.7685 119.334 31.7681 119.276C31.7442 115.366 31.1049 111.815 30.0544 108.688C29.6863 107.592 29.2926 106.626 28.8986 105.798L28.8767 105.752C28.742 105.47 28.6167 105.225 28.5036 105.016L28.4696 104.954C28.4369 104.894 28.4075 104.842 28.3816 104.797L28.3693 104.776L28.3442 104.733C28.3143 104.684 28.3301 104.62 28.3793 104.59Z" fill="#253368"/>
<path fill-rule="evenodd" clip-rule="evenodd" d="M36.4069 124.436H27.391C26.9036 124.436 26.5049 124.038 26.5049 123.552V116.992C26.5049 116.506 26.9036 116.108 27.391 116.108H36.4069C36.8942 116.108 37.293 116.506 37.293 116.992V123.552C37.293 124.038 36.8942 124.436 36.4069 124.436Z" fill="#253368"/>
<path d="M102.128 90.5205H80.2019V125.217H102.128V90.5205Z" fill="#B2B2B2"/>
<path d="M80.2877 90.5205H58.3621V125.217H80.2877V90.5205Z" fill="#D1D1D1"/>
<path d="M68.8004 48.4443L67.8657 67.095L63.4706 80.7717H71.3832L75.493 68.9879L76.7772 55.5958L68.8004 48.4443Z" fill="#F7EBE7"/>
<path d="M68.5792 113.633L70.1703 121.026L64.8262 121.66L63.3065 114.38L68.5792 113.633Z" fill="#FCC9A7"/>
<path d="M70.491 120.357C70.3555 119.959 69.9274 119.816 69.6348 120.073C69.0641 120.578 68.0366 121.197 66.5169 121.048C64.9401 120.891 64.3479 119.966 64.1196 119.297C63.9983 118.948 63.6629 118.77 63.3632 118.92L53.7953 123.716C53.2174 124.008 52.7607 124.549 52.5324 125.225C52.3183 125.858 52.7464 126.541 53.3458 126.527L69.8775 126.071C70.5267 126.057 71.0262 125.417 70.9691 124.677L70.6979 121.048C70.6908 120.991 70.6837 120.927 70.6623 120.87L70.491 120.357Z" fill="#1F252A"/>
<path d="M68.4869 77.8826H56.0792C56.0792 77.8826 48.5233 77.4628 48.0738 83.6464C47.6243 89.8301 59.1544 107.52 60.9596 116.97L71.3337 116.116L63.8635 90.4208L82.4429 90.5275C83.8199 90.5346 85.1898 90.3354 86.4884 89.8871C90.1058 88.6347 95.6282 86.8415 92.6173 76.9077L68.4869 77.8826Z" fill="#092330"/>
<path d="M78.0616 113.661L80.5874 122.499L75.2433 123.132L72.7888 114.408L78.0616 113.661Z" fill="#FCC9A7"/>
<path d="M80.9087 121.83C80.7731 121.431 80.345 121.289 80.0525 121.545C79.4817 122.051 78.4543 122.67 76.9345 122.52C75.3577 122.364 74.7655 121.439 74.5372 120.77C74.4159 120.421 74.0805 120.243 73.7809 120.393L64.2129 125.189C63.635 125.48 63.1783 126.021 62.95 126.697C62.736 127.331 63.1641 128.014 63.7634 127.999L80.5805 127.544C81.2298 127.53 81.7292 126.889 81.6721 126.149L81.1085 122.52C81.1013 122.463 81.0942 122.399 81.0728 122.342L80.9087 121.83Z" fill="#1F252A"/>
<path d="M83.3133 41.1147C83.5915 41.3851 96.042 44.5517 96.042 44.5517L93.3807 51.6035L79.7672 50.5789L83.3133 41.1147Z" fill="#F7EBE7"/>
<path d="M78.176 42.8154C78.176 42.8154 70.0635 45.7685 68.8007 48.4441C69.2359 52.2226 70.5701 55.8588 72.7677 58.9685C75.4647 62.7826 78.7967 69.3363 78.1831 77.8824H101.636C101.636 77.8824 100.373 53.8379 93.4305 44.6086L78.176 42.8154Z" fill="#F7EBE7"/>
<path d="M80.8375 46.6296C83.142 46.1599 84.6261 43.9184 84.1552 41.62L82.7781 34.8955L74.4374 36.5962L75.8145 43.3207C76.2854 45.6191 78.5329 47.0992 80.8375 46.6296Z" fill="#FCC9A7"/>
<path d="M83.3492 37.2441C83.3492 37.2441 82.4716 42.6949 78.2192 43.0222C74.4948 43.3069 74.8515 37.9344 74.8515 37.9344L83.3492 37.2441Z" fill="#F4BE9A"/>
<path d="M78.5544 40.0331L79.2893 39.8623C82.9781 39.0084 85.2755 35.3366 84.4194 31.6648L83.449 27.4736C82.5928 23.7947 78.9112 21.5033 75.2295 22.3573L74.4946 22.528C70.8059 23.3819 68.5084 27.0537 69.3646 30.7255L70.335 34.9168C71.1912 38.5957 74.8728 40.887 78.5544 40.0331Z" fill="#FCC9A7"/>
<path d="M82.1074 33.4083C81.9362 33.7001 81.772 34.1412 81.715 34.8101C81.6507 35.6569 81.2226 36.461 80.5091 36.9307C78.4614 38.2827 76.8989 34.8599 73.8737 35.4648C73.8737 35.4648 72.6893 35.6427 72.4538 36.9591C72.2184 38.2684 70.5702 35.9771 70.2063 34.4116C69.8424 32.8461 69.6569 42.1608 77.1058 41.371C77.1058 41.371 80.8659 41.25 83.3988 37.4288C83.6771 37.0089 83.8412 36.5179 83.8554 36.0127C83.8768 35.2655 83.7698 34.1341 83.0563 33.3229C82.8066 33.024 82.3072 33.0667 82.1074 33.4083Z" fill="#1C2226"/>
<path d="M82.1147 31.2947C82.1147 31.2947 78.8968 30.2345 79.4391 25.5451C79.4391 25.5451 71.448 33.0879 65.526 27.5518C65.526 27.5518 68.1731 26.8473 69.2647 25.0399C71.2554 21.7452 76.9776 17.2053 81.5582 22.4568C81.5582 22.4568 87.1306 21.5958 85.5324 30.1562L82.1147 31.2947Z" fill="#1C2226"/>
<path d="M82.1145 31.2948C82.4213 32.6041 83.7341 33.4224 85.047 33.1235C86.3669 32.8176 87.1803 31.5082 86.8806 30.1989C86.5738 28.8896 85.261 28.0713 83.9482 28.3701C82.6282 28.6761 81.8077 29.9855 82.1145 31.2948Z" fill="#FCC9A7"/>
<path d="M78.0474 46.3662L81.4936 46.4303L79.082 51.4114L76.4778 46.6366L78.0474 46.3662Z" fill="#0C2C40"/>
<path d="M84.4477 41.3355L80.0098 46.5016L82.8994 49.8105L88.215 42.5238C88.215 42.5238 86.8522 40.3393 84.4477 41.3355Z" fill="#FFF7F3"/>
<path d="M78.0474 46.3665L75.4931 49.2414L73.6951 44.7584C73.6951 44.7584 74.166 42.7446 75.6358 43.1288L78.0474 46.3665Z" fill="#FFF7F3"/>
<path d="M78.9892 49.8034C78.9892 49.8034 75.6572 58.4705 76.4849 70.7667L79.7669 73.7554L83.5984 70.0765L79.4673 49.2412L78.9892 49.8034Z" fill="#0C2C40"/>
<path d="M85.2184 70.3828L78.0834 72.7239L77.6125 76.901L87.0735 74.0831L85.2184 70.3828Z" fill="#FCC9A7"/>
<path d="M79.1463 75.4847C79.1463 77.9254 77.1627 79.9107 74.7083 79.9107C72.261 79.9107 70.2704 77.9325 70.2704 75.4847C70.2704 73.0439 72.2539 71.0586 74.7083 71.0586C77.1556 71.0586 79.1463 73.0368 79.1463 75.4847Z" fill="#FCC9A7"/>
<path d="M78.1758 77.8829H65.7753C65.7753 77.8829 58.2194 77.463 57.7699 83.6467C57.3204 89.8304 69.6995 108.659 71.5046 118.102L81.8788 117.248L73.5595 90.4139L92.1389 90.5207C93.5159 90.5278 94.8858 90.3285 96.1844 89.8802C99.8018 88.6278 105.324 86.8346 102.313 76.9009L78.1758 77.8829Z" fill="#0C2C40"/>
<path d="M40.7672 56.0151H62.2077C62.9141 56.0151 63.5205 56.5061 63.6704 57.1964L67.7087 76.0819C67.9085 77.007 67.195 77.8822 66.2461 77.8822H44.4488C43.7353 77.8822 43.1217 77.377 42.9862 76.6796L39.3045 57.7941C39.119 56.869 39.8254 56.0151 40.7672 56.0151Z" fill="#FFDD00"/>
<path d="M39.5329 56.0156H60.9662C61.6726 56.0156 62.2791 56.5066 62.4289 57.1969L66.4673 76.0824C66.6671 77.0074 65.9607 77.8827 65.0046 77.8827H43.2145C42.501 77.8827 41.8874 77.3775 41.7519 76.6801L38.0702 57.7946C37.8847 56.8695 38.5911 56.0156 39.5329 56.0156Z" fill="#FFDD00"/>
<path d="M67.1238 76.2671H81.7718C82.2213 76.2671 82.5781 76.63 82.5781 77.0712C82.5781 77.5195 82.2142 77.8753 81.7718 77.8753H66.8384L67.1238 76.2671Z" fill="#FFDD00"/>
<path d="M52.804 66.4543C52.804 67.7423 51.7623 68.7812 50.4709 68.7812C49.1795 68.7812 48.1378 67.7352 48.1378 66.4543C48.1378 65.1664 49.1866 64.1274 50.4709 64.1274C51.7623 64.1274 52.804 65.1664 52.804 66.4543Z" fill="white"/>
<path d="M90.9263 51.2694L98.7604 63.8858L80.0098 70.5605L82.5784 76.0966C82.5784 76.0966 98.6106 74.3034 106.359 68.3474C107.073 67.7995 107.429 66.91 107.308 66.0206C106.944 63.1742 105.389 56.2647 98.7604 46.4448C97.4119 44.4452 94.7291 43.8404 92.6386 45.0501C90.4625 46.3025 89.699 49.0777 90.9263 51.2694Z" fill="#F7EBE7"/>
<path d="M20.9926 15.4529C24.8998 14.7583 27.4698 11.0269 26.7329 7.11855C25.9961 3.2102 22.2313 0.604914 18.3241 1.29949C14.417 1.99406 11.847 5.72548 12.5839 9.63383C13.3207 13.5422 17.0855 16.1475 20.9926 15.4529Z" fill="#BD2E7A"/>
<path d="M22.1273 7.80392L20.0667 11.8048C20.0324 11.8734 19.9799 11.931 19.9148 11.9714C19.8497 12.0117 19.7746 12.0333 19.6976 12.0338C19.6207 12.0343 19.5448 12.0136 19.4784 11.974C19.412 11.9344 19.3575 11.8774 19.321 11.8093L16.8787 7.36577C16.8409 7.29832 16.8223 7.222 16.8249 7.14512C16.8274 7.06824 16.851 6.99375 16.8931 6.9298C16.9352 6.86584 16.9942 6.81486 17.0636 6.78243C17.133 6.75 17.2102 6.73735 17.2868 6.74588L21.786 7.1806C21.8563 7.18602 21.9243 7.20903 21.9837 7.24749C22.0432 7.28596 22.0921 7.33865 22.1261 7.40072C22.1601 7.46279 22.178 7.53226 22.1782 7.60271C22.1784 7.67317 22.1609 7.74236 22.1273 7.80392Z" fill="white"/>
</svg>
