<svg width="70" height="108" viewBox="0 0 70 108" fill="none" xmlns="http://www.w3.org/2000/svg">
<path d="M64.1276 70.5205H42.2019V105.217H64.1276V70.5205Z" fill="#B2B2B2"/>
<path d="M42.2877 70.5205H20.3621V105.217H42.2877V70.5205Z" fill="#D1D1D1"/>
<path d="M30.8004 28.4443L29.8657 47.095L25.4706 60.7717H33.3832L37.493 48.9879L38.7772 35.5958L30.8004 28.4443Z" fill="#F7EBE7"/>
<path d="M30.5792 93.6328L32.1703 101.026L26.8262 101.66L25.3065 94.38L30.5792 93.6328Z" fill="#FCC9A7"/>
<path d="M32.491 100.357C32.3555 99.9588 31.9274 99.8165 31.6348 100.073C31.0641 100.578 30.0366 101.197 28.5169 101.048C26.9401 100.891 26.3479 99.9659 26.1196 99.297C25.9983 98.9484 25.6629 98.7705 25.3632 98.9199L15.7953 103.716C15.2174 104.008 14.7607 104.549 14.5324 105.225C14.3183 105.858 14.7464 106.541 15.3458 106.527L31.8775 106.071C32.5267 106.057 33.0262 105.417 32.9691 104.677L32.6979 101.048C32.6908 100.991 32.6837 100.927 32.6623 100.87L32.491 100.357Z" fill="#1F252A"/>
<path d="M30.4869 57.8826H18.0792C18.0792 57.8826 10.5233 57.4628 10.0738 63.6464C9.62433 69.8301 21.1544 87.5202 22.9596 96.9701L33.3337 96.1162L25.8635 70.4208L44.4429 70.5275C45.8199 70.5346 47.1898 70.3354 48.4884 69.8871C52.1058 68.6347 57.6282 66.8415 54.6173 56.9077L30.4869 57.8826Z" fill="#092330"/>
<path d="M40.0616 93.6611L42.5874 102.499L37.2433 103.132L34.7888 94.4083L40.0616 93.6611Z" fill="#FCC9A7"/>
<path d="M42.9087 101.83C42.7731 101.431 42.345 101.289 42.0525 101.545C41.4817 102.051 40.4543 102.67 38.9345 102.52C37.3577 102.364 36.7655 101.439 36.5372 100.77C36.4159 100.421 36.0805 100.243 35.7809 100.393L26.2129 105.189C25.635 105.48 25.1783 106.021 24.95 106.697C24.736 107.331 25.1641 108.014 25.7634 107.999L42.5805 107.544C43.2298 107.53 43.7292 106.889 43.6721 106.149L43.1085 102.52C43.1013 102.463 43.0942 102.399 43.0728 102.342L42.9087 101.83Z" fill="#1F252A"/>
<path d="M45.3133 21.1147C45.5915 21.3851 58.042 24.5517 58.042 24.5517L55.3807 31.6035L41.7672 30.5789L45.3133 21.1147Z" fill="#F7EBE7"/>
<path d="M40.176 22.8154C40.176 22.8154 32.0635 25.7685 30.8007 28.4441C31.2359 32.2226 32.5701 35.8588 34.7677 38.9685C37.4647 42.7826 40.7967 49.3363 40.1831 57.8824H63.6357C63.6357 57.8824 62.3728 33.8379 55.4305 24.6086L40.176 22.8154Z" fill="#F7EBE7"/>
<path d="M42.8375 26.6296C45.142 26.1599 46.6261 23.9184 46.1552 21.62L44.7781 14.8955L36.4374 16.5962L37.8145 23.3207C38.2854 25.6191 40.5329 27.0992 42.8375 26.6296Z" fill="#FCC9A7"/>
<path d="M45.3492 17.2441C45.3492 17.2441 44.4716 22.6949 40.2192 23.0222C36.4948 23.3069 36.8515 17.9344 36.8515 17.9344L45.3492 17.2441Z" fill="#F4BE9A"/>
<path d="M40.5544 20.0331L41.2893 19.8623C44.9781 19.0084 47.2755 15.3366 46.4194 11.6648L45.449 7.47356C44.5928 3.79466 40.9112 1.50335 37.2295 2.35725L36.4946 2.52803C32.8059 3.38194 30.5084 7.05372 31.3646 10.7255L32.335 14.9168C33.1912 18.5957 36.8728 20.887 40.5544 20.0331Z" fill="#FCC9A7"/>
<path d="M44.1074 13.4083C43.9362 13.7001 43.772 14.1412 43.715 14.8101C43.6507 15.6569 43.2226 16.461 42.5091 16.9307C40.4614 18.2827 38.8989 14.8599 35.8737 15.4648C35.8737 15.4648 34.6893 15.6427 34.4538 16.9591C34.2184 18.2684 32.5702 15.9771 32.2063 14.4116C31.8424 12.8461 31.6569 22.1608 39.1058 21.371C39.1058 21.371 42.8659 21.25 45.3988 17.4288C45.6771 17.0089 45.8412 16.5179 45.8554 16.0127C45.8768 15.2655 45.7698 14.1341 45.0563 13.3229C44.8066 13.024 44.3072 13.0667 44.1074 13.4083Z" fill="#1C2226"/>
<path d="M44.1147 11.2947C44.1147 11.2947 40.8968 10.2345 41.4391 5.54512C41.4391 5.54512 33.448 13.0879 27.526 7.55179C27.526 7.55179 30.1731 6.84732 31.2647 5.03989C33.2554 1.74524 38.9776 -2.79468 43.5582 2.45683C43.5582 2.45683 49.1306 1.59581 47.5324 10.1562L44.1147 11.2947Z" fill="#1C2226"/>
<path d="M44.1145 11.2948C44.4213 12.6041 45.7341 13.4224 47.047 13.1235C48.3669 12.8176 49.1803 11.5082 48.8806 10.1989C48.5738 8.88961 47.261 8.07128 45.9482 8.37015C44.6282 8.67613 43.8077 9.98545 44.1145 11.2948Z" fill="#FCC9A7"/>
<path d="M40.0474 26.3662L43.4936 26.4303L41.082 31.4114L38.4778 26.6366L40.0474 26.3662Z" fill="#0C2C40"/>
<path d="M46.4477 21.3355L42.0098 26.5016L44.8994 29.8105L50.215 22.5238C50.215 22.5238 48.8522 20.3393 46.4477 21.3355Z" fill="#FFF7F3"/>
<path d="M40.0474 26.3665L37.4931 29.2414L35.6951 24.7584C35.6951 24.7584 36.166 22.7446 37.6358 23.1288L40.0474 26.3665Z" fill="#FFF7F3"/>
<path d="M40.9892 29.8034C40.9892 29.8034 37.6572 38.4705 38.4849 50.7667L41.7669 53.7554L45.5984 50.0765L41.4673 29.2412L40.9892 29.8034Z" fill="#0C2C40"/>
<path d="M47.2184 50.3828L40.0834 52.7239L39.6125 56.901L49.0735 54.0831L47.2184 50.3828Z" fill="#FCC9A7"/>
<path d="M41.1463 55.4847C41.1463 57.9254 39.1627 59.9107 36.7083 59.9107C34.261 59.9107 32.2704 57.9325 32.2704 55.4847C32.2704 53.0439 34.2539 51.0586 36.7083 51.0586C39.1556 51.0586 41.1463 53.0368 41.1463 55.4847Z" fill="#FCC9A7"/>
<path d="M40.1758 57.8829H27.7753C27.7753 57.8829 20.2194 57.463 19.7699 63.6467C19.3204 69.8304 31.6995 88.659 33.5046 98.1018L43.8788 97.2479L35.5595 70.4139L54.1389 70.5207C55.5159 70.5278 56.8858 70.3285 58.1844 69.8802C61.8018 68.6278 67.3242 66.8346 64.3133 56.9009L40.1758 57.8829Z" fill="#0C2C40"/>
<path d="M2.76719 36.0151H24.2077C24.9141 36.0151 25.5205 36.5061 25.6704 37.1964L29.7087 56.0819C29.9085 57.007 29.195 57.8822 28.2461 57.8822H6.44882C5.73533 57.8822 5.12173 57.377 4.98617 56.6796L1.30453 37.7941C1.11903 36.869 1.82538 36.0151 2.76719 36.0151Z" fill="#FFDD00"/>
<path d="M1.53288 36.0156H22.9662C23.6726 36.0156 24.2791 36.5066 24.4289 37.1969L28.4673 56.0824C28.6671 57.0074 27.9607 57.8827 27.0046 57.8827H5.21451C4.50101 57.8827 3.88742 57.3775 3.75185 56.6801L0.0702208 37.7946C-0.115288 36.8695 0.591063 36.0156 1.53288 36.0156Z" fill="#FFDD00"/>
<path d="M29.1238 56.2671H43.7718C44.2213 56.2671 44.5781 56.63 44.5781 57.0712C44.5781 57.5195 44.2142 57.8753 43.7718 57.8753H28.8384L29.1238 56.2671Z" fill="#FFDD00"/>
<path d="M14.804 46.4543C14.804 47.7423 13.7623 48.7812 12.4709 48.7812C11.1795 48.7812 10.1378 47.7352 10.1378 46.4543C10.1378 45.1664 11.1866 44.1274 12.4709 44.1274C13.7623 44.1274 14.804 45.1664 14.804 46.4543Z" fill="white"/>
<path d="M52.9263 31.2694L60.7604 43.8858L42.0098 50.5605L44.5784 56.0966C44.5784 56.0966 60.6106 54.3034 68.3591 48.3474C69.0726 47.7995 69.4293 46.91 69.3081 46.0206C68.9442 43.1742 67.3888 36.2647 60.7604 26.4448C59.4119 24.4452 56.7291 23.8404 54.6386 25.0501C52.4625 26.3025 51.699 29.0777 52.9263 31.2694Z" fill="#F7EBE7"/>
</svg>
